HIERARCHY
ROOT pelvis
{
  OFFSET 0 100 0
  CHANNELS 6 Xposition Yposition Zposition Zrotation Xrotation Yrotation
  JOINT pelvis_right_femur
  {
    OFFSET -10.78128 -3.44521 -0.5502486
    CHANNELS 3 Zrotation Xrotation Yrotation
    JOINT right_femur_tibia
    {
      OFFSET -0.8047443 -44.0398 -0.1307829
      CHANNELS 3 Zrotation Xrotation Yrotation
      JOINT right_tibia_foot
      {
        OFFSET 3.006224 -47.83518 -5
        CHANNELS 3 Zrotation Xrotation Yrotation
        End Site
        {
          OFFSET 0 -5 15
        }
      }
    }
  }
  JOINT pelvis_left_femur
  {
    OFFSET 10.78128 -3.44521 -0.5502486
    CHANNELS 3 Zrotation Xrotation Yrotation
    JOINT left_femur_tibia
    {
      OFFSET 0.8047443 -44.0398 -0.1307829
      CHANNELS 3 Zrotation Xrotation Yrotation
      JOINT left_tibia_foot
      {
        OFFSET -4.370144 -48.10324 -4.275266
        CHANNELS 3 Zrotation Xrotation Yrotation
        End Site
        {
          OFFSET 0 -5 15
        }
      }
    }
  }
  JOINT pelvis_spine1
  {
    OFFSET 0 6.468898 -3.129235
    CHANNELS 3 Zrotation Xrotation Yrotation
    JOINT spine1
    {
      OFFSET 0 23.15396 4.99043
      CHANNELS 3 Zrotation Xrotation Yrotation
      JOINT spine2
      {
        OFFSET 0 20.79997 -5.064912
        CHANNELS 3 Zrotation Xrotation Yrotation
        JOINT neck
        {
          OFFSET 0 14.38658 9.616178
          CHANNELS 3 Zrotation Xrotation Yrotation
          End Site
          {
            OFFSET 0 20 0
          }
        }
      }
      JOINT right_manubrium
      {
        OFFSET -5.722621 16.35077 3.967754
        CHANNELS 3 Zrotation Xrotation Yrotation
        JOINT right_clavicle
        {
          OFFSET -13.16364 1.694482 -4.693211
          CHANNELS 3 Zrotation Xrotation Yrotation
          JOINT right_humerus
          {
            OFFSET -28.5034 -0.3100689 -2.792744
            CHANNELS 3 Zrotation Xrotation Yrotation
            JOINT right_radius
            {
              OFFSET -25.15693 0.02248979 -1.271978
              CHANNELS 3 Zrotation Xrotation Yrotation
              End Site
              {
                OFFSET -15 0 0
              }
            }
          }
        }
      }
      JOINT left_manubrium
      {
        OFFSET 5.722621 16.35077 3.967754
        CHANNELS 3 Zrotation Xrotation Yrotation
        JOINT left_clavicle
        {
          OFFSET 13.16364 1.694482 -4.693211
          CHANNELS 3 Zrotation Xrotation Yrotation
          JOINT left_humerus
          {
            OFFSET 29.39168 -1.063119 -2.237045
            CHANNELS 3 Zrotation Xrotation Yrotation
            JOINT left_radius
            {
              OFFSET 24.59957 -0.9528479 0.9047498
              CHANNELS 3 Zrotation Xrotation Yrotation
              End Site
              {
                OFFSET 15 -0 -0
              }
            }
          }
        }
      }
    }
  }
}
MOTION
Frames: 21
Frame Time: 0.0416666666667
463.1951 93.20263 3016.894 1.736653 -6.516844 11.08401 3.552173 17.17127 2.194991 -0 14.78232 -0 -4.078728 -12.0541 -0.8887266 1.302149 -24.00372 -3.726855 -0 19.85274 -0 -2.649274 -6.224536 19.13807 -0.7866263 -1.183555 8.413957 -0.566055 13.08822 -4.645839 1.367476 20.26606 4.376508 1.77046 -18.62234 5.487458 1.367323 -24.39506 12.39573 83.48415 23.30178 -8.581318 -0 0 24.44653 -25.52965 13.36979 16.02821 3.227466 -18.3483 -4.342095 -92.66816 18.64109 28.42499 0 0 -12.05145 -0.2941123 6.796915 14.2195
465.3062 92.33616 3022.879 2.023723 -6.918826 10.8167 2.797631 18.22753 2.285693 -0 19.63484 -0 -3.387835 -10.62364 -1.016029 0.8604328 -24.01307 -3.889101 -0 17.77185 -0 -2.817093 -6.598875 19.21721 -0.8169423 -1.119953 8.607325 -0.7062767 13.02181 -4.381532 1.407073 20.32021 4.285498 1.728225 -18.43649 5.437987 1.354812 -24.63896 12.37446 83.02222 23.14467 -7.702372 -0 0 25.22291 -25.77108 13.29666 16.30736 3.119491 -17.91632 -4.22617 -93.18359 18.72382 29.20591 0 0 -11.03074 -0.7183042 6.643092 14.71663
467.483 91.83388 3028.997 2.422405 -7.508277 10.78913 1.936271 18.22543 2.622623 -0 26.58652 -0 -2.536599 -8.333921 -1.564693 -0.04111012 -22.58364 -4.397972 -0 17.95182 -0 -3.308583 -6.987692 19.08957 -0.8630698 -1.038909 8.650647 -0.773222 12.91181 -4.250039 1.447376 20.39206 4.242226 1.707495 -18.2562 5.426184 1.359318 -24.60964 12.32327 82.80646 23.06145 -7.320226 -0 0 25.46751 -25.85795 13.22166 16.39174 3.079699 -17.66105 -4.162218 -93.33493 18.91308 29.33178 0 0 -10.60077 -1.031823 6.493714 15.08022
469.7142 91.85844 3035.248 2.910492 -8.172241 11.04939 0.9867593 17.00464 3.049416 -0 35.07862 -0 -1.54501 -5.297207 -2.465877 -1.318101 -19.69137 -5.189471 -0 19.28235 -0 -3.976741 -7.593183 18.7609 -0.9209543 -0.94354 8.545797 -0.7683873 12.76604 -4.251279 1.487939 20.4803 4.244843 1.70673 -18.08405 5.450697 1.374126 -24.31694 12.2441 82.84197 23.0448 -7.435102 -0 0 25.18337 -25.79872 13.14793 16.28587 3.10821 -17.58912 -4.1548 -93.11952 19.19812 28.81015 0 0 -10.76122 -1.224278 6.358565 15.29679
471.9839 92.47674 3041.586 3.432643 -8.735691 11.62248 0.04566814 14.2829 3.430234 -0 44.15266 -0 -0.5045023 -1.833562 -3.621841 -2.85449 -15.30799 -6.237156 -0 20.81932 -0 -4.620222 -8.595038 18.27438 -0.9851653 -0.8403439 8.286218 -0.6867272 12.59487 -4.397191 1.526041 20.58065 4.296233 1.726706 -17.93333 5.512703 1.394785 -23.76065 12.1405 83.15783 23.09224 -8.08779 -0 0 24.33962 -25.58858 13.08055 15.98096 3.209745 -17.72688 -4.212362 -92.51392 19.55231 27.61219 0 0 -11.55673 -1.264902 6.255428 15.32907
474.2558 93.61793 3047.881 3.864665 -8.949922 12.46266 -0.6832189 9.930896 3.679082 -0 52.02563 -0 0.343127 1.312855 -4.808304 -4.427621 -9.75211 -7.530321 -0 21.79347 -0 -4.952669 -10.05382 17.77043 -1.046825 -0.7415048 7.873295 -0.5245798 12.41704 -4.697903 1.55654 20.6834 4.398621 1.768114 -17.82709 5.611511 1.416265 -22.96074 12.02116 83.78301 23.19431 -9.307412 -0 0 22.92858 -25.22796 13.02751 15.47667 3.385947 -18.1028 -4.342369 -91.51446 19.91831 25.74472 0 0 -13.0155 -1.113445 6.208201 15.12947
476.4729 95.03662 3053.947 4.028997 -8.593526 13.43164 -0.9506912 4.332864 3.76471 -0 56.2631 -0 0.6290354 3.142327 -5.655818 -5.690552 -3.936265 -8.986116 -0 21.66039 -0 -4.698035 -11.82137 17.44776 -1.09418 -0.6635852 7.340969 -0.2931305 12.2604 -5.136153 1.573698 20.7738 4.544588 1.827707 -17.78838 5.7384 1.431119 -21.99593 11.90185 84.69651 23.32142 -11.01822 -0 0 21.05722 -24.7492 12.99741 14.81402 3.622998 -18.70816 -4.540189 -90.20306 20.2093 23.3601 0 0 -15.04141 -0.7525522 6.235396 14.67911
478.5854 96.37874 3059.667 3.82498 -7.686864 14.37289 -0.6625934 -1.652096 3.653636 -0 55.32594 -0 0.1551776 3.22999 -5.917478 -6.356534 1.089198 -10.3458 -0 20.3126 -0 -3.860525 -13.60449 17.34442 -1.119248 -0.6185919 6.752536 -0.01972857 12.14781 -5.662039 1.574767 20.83926 4.716416 1.898213 -17.8246 5.877809 1.433975 -20.98542 11.79875 85.80701 23.43539 -13.02488 -0 0 18.94496 -24.21284 12.99391 14.07246 3.891722 -19.4791 -4.784378 -88.74422 20.35567 20.74279 0 0 -17.402 -0.2146841 6.334249 14.0196
480.5757 97.34282 3065.076 3.322043 -6.505921 15.2044 0.01852066 -7.326321 3.286699 -0 49.84473 -0 -0.8873443 2.152158 -5.712519 -6.421186 4.966437 -11.28714 -0 18.16619 -0 -2.780628 -15.19138 17.24991 -1.124263 -0.6054928 6.151976 0.2743433 12.07919 -6.232966 1.561165 20.8775 4.90112 1.974847 -17.92521 6.019686 1.428981 -19.99692 11.71693 87.02406 23.52077 -15.16586 -0 0 16.75401 -23.65707 13.01274 13.30713 4.17004 -20.34699 -5.051863 -87.26088 20.35092 18.08968 0 0 -19.91104 0.4444834 6.481996 13.21983
482.4476 97.77766 3070.303 2.668197 -5.333133 15.91006 0.8472506 -12.52746 2.666532 -0 41.71722 -0 -2.161679 0.7808894 -5.331121 -6.094125 8.044018 -11.68286 -0 15.92212 -0 -1.82149 -16.53613 16.94079 -1.1168 -0.6155521 5.546685 0.5834097 12.03932 -6.834509 1.536066 20.89397 5.0961 2.057237 -18.07459 6.163183 1.424742 -19.02795 11.65168 88.31082 23.58027 -17.39096 -0 0 14.52066 -23.08401 13.04571 12.52692 4.452296 -21.27823 -5.33056 -85.78515 20.22335 15.43231 0 0 -22.51452 1.185599 6.654769 12.3278
484.2121 97.66313 3075.495 1.986157 -4.330454 16.49593 1.656601 -17.30435 1.866785 -0 32.65426 -0 -3.43245 -0.3278256 -4.980246 -5.58805 10.74236 -11.58546 -0 14.21996 -0 -1.186517 -17.64189 16.32706 -1.10204 -0.6410593 4.947332 0.8986507 12.01704 -7.448014 1.503371 20.89512 5.295798 2.143094 -18.25559 6.306164 1.423394 -18.08572 11.59872 89.629 23.6083 -19.63796 -0 0 12.29275 -22.50486 13.08488 11.74704 4.731739 -22.23752 -5.610227 -84.35346 19.99843 12.81725 0 0 -25.14225 1.971324 6.835352 11.38765
485.8892 97.06946 3080.793 1.374582 -3.598136 16.97672 2.351423 -21.52848 0.9921857 -0 23.98206 -0 -4.546327 -0.9090869 -4.761758 -5.05429 13.19887 -11.08763 -0 13.56897 -0 -0.9771715 -18.4544 15.42292 -1.082313 -0.6762196 4.393549 1.195835 12.00954 -8.02691 1.4681 20.88625 5.483889 2.22488 -18.44548 6.438857 1.420588 -17.22953 11.5581 90.88358 23.59479 -21.74222 -0 0 10.22259 -21.96434 13.12408 11.02209 4.989035 -23.15181 -5.872072 -83.06343 19.70794 10.41868 0 0 -27.60337 2.738351 7.008058 10.47355
487.5142 96.15406 3086.313 0.9377144 -3.233221 17.37545 2.880227 -24.78885 0.20516 -0 17.06869 -0 -5.355337 -0.8556798 -4.734487 -4.615525 15.26601 -10.30706 -0 14.50235 -0 -1.24578 -18.82929 14.33626 -1.058623 -0.7157416 3.94453 1.440379 12.0191 -8.505696 1.436085 20.87186 5.636991 2.291537 -18.61658 6.546142 1.408854 -16.5521 11.53248 91.93569 23.53889 -23.4701 -0 0 8.533315 -21.52952 13.15997 10.43338 5.196829 -23.92075 -6.091599 -82.04393 19.40183 8.492782 0 0 -29.62588 3.401792 7.15817 9.684629
489.1347 95.15883 3092.129 0.7629551 -3.306312 17.71657 3.260614 -26.57357 -0.2854523 -0 13.09053 -0 -5.743385 -0.2254239 -4.930257 -4.349821 16.63421 -9.387161 -0 17.5484 -0 -1.979096 -18.57792 13.24897 -1.031419 -0.7544055 3.644041 1.60519 12.04785 -8.833969 1.412633 20.85708 5.736372 2.33369 -18.74418 6.616213 1.379872 -16.12156 11.52281 92.67812 23.44777 -24.64579 -0 0 7.391004 -21.25442 13.19146 10.04301 5.335348 -24.46773 -6.252388 -81.37671 19.13222 7.22358 0 0 -31.00438 3.894675 7.277857 9.09795
490.7931 94.36039 3098.262 0.860603 -3.795282 18.00933 3.595782 -26.58039 -0.318581 -0 12.22243 -0 -5.723139 0.6897582 -5.322984 -4.232468 16.97904 -8.453047 -0 22.96418 -0 -3.067523 -17.56591 12.35255 -1.001794 -0.7868272 3.496184 1.683428 12.0923 -8.999977 1.401364 20.84851 5.776729 2.347925 -18.81354 6.647196 1.328024 -15.94082 11.52546 93.08949 23.32725 -25.23755 -0 0 6.81677 -21.15224 13.21648 9.860836 5.402677 -24.77452 -6.353532 -81.05537 18.93099 6.620751 0 0 -31.7007 4.196016 7.367602 8.735681
492.5025 93.99339 3104.655 1.14803 -4.565579 18.22852 4.02381 -24.80315 0.1672782 -0 13.50243 -0 -5.459671 1.363053 -5.805862 -4.138515 16.01861 -7.617688 -0 30.53116 -0 -4.299855 -15.77526 11.82886 -0.9720456 -0.8072164 3.490272 1.676109 12.14442 -9.005915 1.40514 20.85351 5.75846 2.333699 -18.81479 6.641602 1.251069 -15.98759 11.53475 93.18118 23.17915 -25.26563 -0 0 6.778926 -21.21725 13.22986 9.875919 5.403269 -24.84261 -6.397498 -81.04999 18.81639 6.631998 0 0 -31.73575 4.301085 7.429292 8.601017
494.2313 94.19126 3111.159 1.496504 -5.417822 18.30968 4.621196 -21.40831 1.145683 -0 15.59665 -0 -5.180601 1.189149 -6.213965 -3.928107 13.54242 -7.022663 -0 39.47875 -0 -5.403776 -13.32959 11.85923 -0.9451848 -0.8101554 3.633266 1.576222 12.19636 -8.837011 1.426992 20.87838 5.677361 2.288933 -18.73726 6.598562 1.149073 -16.2683 11.54699 92.92869 23.00578 -24.68742 -0 0 7.31134 -21.45563 13.22398 10.09818 5.333665 -24.64636 -6.376828 -81.37911 18.80874 7.286563 0 0 -31.05344 4.185744 7.461159 8.720922
495.9199 94.94391 3117.568 1.782872 -6.150512 18.17429 5.319166 -16.74066 2.446219 -0 17.39393 -0 -5.061731 -0.1982994 -6.381081 -3.534833 9.574055 -6.76586 -0 48.32338 -0 -6.137785 -10.54944 12.52564 -0.9232627 -0.7950736 3.936137 1.379119 12.24435 -8.4813 1.467044 20.92348 5.531534 2.21354 -18.5824 6.517232 1.026763 -16.79958 11.56218 92.30979 22.81225 -23.46246 -0 0 8.457596 -21.86806 13.19341 10.53829 5.189275 -24.16432 -6.28164 -82.07907 18.91206 8.638563 0 0 -29.59751 3.835497 7.462434 9.113025
497.5269 96.08146 3123.715 1.931328 -6.626566 17.77817 5.923158 -11.37974 3.713479 -0 18.16656 -0 -5.142506 -2.627054 -6.208838 -2.98296 4.525927 -6.760967 -0 54.99596 -0 -6.391963 -7.93335 13.67288 -0.9035648 -0.7717451 4.373623 1.105341 12.29401 -7.97597 1.518698 20.979 5.335348 2.115374 -18.38063 6.405388 0.8912575 -17.54921 11.58363 91.40321 22.59653 -21.71435 -0 0 10.11522 -22.41456 13.14239 11.15581 4.982698 -23.45546 -6.122495 -83.10953 19.0753 10.59147 0 0 -27.50687 3.310276 7.444647 9.709324
499.0673 97.32773 3129.562 1.942449 -6.826181 17.14512 6.252416 -5.941209 4.569811 -0 17.71731 -0 -5.321666 -5.46415 -5.702417 -2.327369 -0.9557202 -6.76035 -0 57.77035 -0 -6.212835 -5.936904 14.97082 -0.8787761 -0.7553436 4.885947 0.7944662 12.35808 -7.398191 1.572158 21.03156 5.114352 2.006674 -18.17633 6.277604 0.7447741 -18.43617 11.61483 90.37452 22.34577 -19.70674 -0 0 12.04697 -23.02868 13.08322 11.86715 4.742337 -22.64675 -5.931775 -84.34437 19.21146 12.89646 0 0 -25.09027 2.72857 7.43161 10.37238
500.6036 98.40311 3135.189 1.873278 -6.823012 16.35358 6.250337 -0.7971869 4.842338 -0 16.37669 -0 -5.456605 -8.073483 -4.938202 -1.602005 -6.337297 -6.550815 -0 56.17993 -0 -5.729058 -4.748726 16.14644 -0.8439771 -0.7539213 5.428631 0.4729097 12.44372 -6.800885 1.622091 21.075 4.885245 1.894836 -17.99408 6.144035 0.5859763 -19.39774 11.65614 89.34074 22.05026 -17.62573 -0 0 14.07956 -23.66704 13.02354 12.61302 4.489014 -21.82593 -5.734025 -85.68159 19.2661 15.36128 0 0 -22.56646 2.168906 7.440725 11.0099
